#!OML:ASF H:\Terrain\Patient Classification 1\Terrain2\Thursday\justin.ASF
:FULLY-SPECIFIED
:DEGREES
2374
root 9.42492 20.0476 -13.1594 -183.849 -6.17228 -180.349
lowerback 5.65208 -0.575709 -3.31179
upperback 4.22434 -1.24363 2.82144
thorax 1.32212 -0.874449 4.83208
lowerneck -9.89775 1.84959 -10.6297
upperneck 41.605 -3.22198 5.19302
head 16.9733 -4.37468 3.12842
rclavicle -1.0635e-014 1.03368e-014
rhumerus -37.5718 -18.7318 -72.5643
rradius 21.7845
rwrist -3.97505
rhand -18.9695 13.3273
rfingers 7.12502
rthumb 7.33455 -16.5256
lclavicle -1.0635e-014 1.03368e-014
lhumerus -37.1985 6.76712 82.7972
lradius 34.1065
lwrist 4.82382
lhand -22.0163 23.6234
lfingers 7.12502
lthumb 4.39304 53.5579
rfemur -30.3455 -12.492 19.6886
rtibia 41.8427
rfoot 11.7986 10.0997
rtoes -21.764
lfemur 26.044 -1.92235 -22.8405
ltibia -5.40694e-014
lfoot -11.1875 -11.4572
ltoes -0.607781
2375
root 9.44108 20.0166 -13.28 -184.186 -6.22414 -180.169
lowerback 5.65408 -0.525147 -3.15914
upperback 4.30532 -1.18225 2.88209
thorax 1.39599 -0.849272 4.80528
lowerneck -9.94115 1.86627 -10.7176
upperneck 41.7803 -3.29086 5.33497
head 17.0962 -4.42097 3.19714
rclavicle 1.42131e-014 -2.38542e-015
rhumerus -37.6056 -18.5563 -72.5421
rradius 21.653
rwrist -4.07099
rhand -18.9984 13.6658
rfingers 7.12502
rthumb 7.30672 -16.1881
lclavicle 1.42131e-014 -2.38542e-015
lhumerus -37.1345 6.81307 82.7523
lradius 33.6227
lwrist 5.04559
lhand -22.1664 22.1718
lfingers 7.12502
lthumb 4.2481 52.1092
rfemur -29.5399 -12.4749 19.781
rtibia 41.228
rfoot 12.0795 10.1599
rtoes -21.187
lfemur 24.5321 -2.05477 -22.5675
ltibia 4.58236
lfoot -13.2423 -11.6416
ltoes -1.3278
2376
root 9.45176 19.9691 -13.4011 -184.331 -6.39479 -180.402
lowerback 5.455 -0.492003 -3.31802
upperback 4.38764 -1.13887 2.80583
thorax 1.58938 -0.835555 4.80939
lowerneck -10.0143 1.81233 -10.7765
upperneck 41.8156 -3.36165 5.39006
head 17.1475 -4.44921 3.223
rclavicle 1.66979e-014 2.46493e-014
rhumerus -37.6467 -18.6267 -72.4716
rradius 21.6291
rwrist -4.04266
rhand -19.1757 14.0334
rfingers 7.12502
rthumb 7.13554 -15.8263
lclavicle 1.66979e-014 2.46493e-014
lhumerus -37.1832 6.6132 82.8415
lradius 33.5989
lwrist 5.29264
lhand -22.1238 21.9341
lfingers 7.12502
lthumb 4.2892 51.8706
rfemur -28.9516 -12.8794 19.4542
rtibia 40.6789
rfoot 12.3311 10.342
rtoes -19.5452
lfemur 23.678 -2.26171 -22.7686
ltibia 7.55669
lfoot -14.3054 -12.028
ltoes -0.699253
2377
root 9.46788 19.9234 -13.5199 -184.382 -6.52225 -180.718
lowerback 5.26837 -0.498347 -3.61335
upperback 4.38162 -1.1405 2.68072
thorax 1.69145 -0.838719 4.8431
lowerneck -9.94077 1.79463 -10.6537
upperneck 41.7751 -3.36687 5.26651
head 17.102 -4.4453 3.14256
rclavicle 1.41137e-014 -4.77083e-015
rhumerus -37.7144 -18.3459 -72.6655
rradius 21.6863
rwrist -4.36676
rhand -19.3024 13.9842
rfingers 7.12502
rthumb 7.01323 -15.8796
lclavicle 1.41137e-014 -4.77083e-015
lhumerus -37.3913 6.59122 82.7734
lradius 33.5553
lwrist 5.58007
lhand -22.7263 22.4055
lfingers 7.12502
lthumb 3.70737 52.353
rfemur -28.4819 -13.169 19.0889
rtibia 40.1429
rfoot 12.6978 10.3376
rtoes -18.441
lfemur 22.9403 -2.42296 -23.0402
ltibia 10.1027
lfoot -15.1958 -12.2649
ltoes -0.682651
2378
root 9.48894 19.8859 -13.6362 -184.433 -6.56759 -180.705
lowerback 5.08372 -0.498228 -3.63481
upperback 4.35353 -1.12744 2.65419
thorax 1.76371 -0.829842 4.82393
lowerneck -9.82444 1.83041 -10.5699
upperneck 41.786 -3.37238 5.2756
head 17.0764 -4.44254 3.12947
rclavicle 2.08724e-015 1.59028e-014
rhumerus -37.7009 -18.2581 -72.7353
rradius 21.517
rwrist -4.41326
rhand -19.1971 14.0557
rfingers 7.12502
rthumb 7.11493 -15.8047
lclavicle 2.08724e-015 1.59028e-014
lhumerus -37.5652 6.7458 82.6389
lradius 33.4165
lwrist 5.73308
lhand -23.0175 23.4124
lfingers 7.12502
lthumb 3.42619 53.3646
rfemur -28.0282 -13.331 19.1585
rtibia 39.6159
rfoot 13.13 10.0447
rtoes -17.8224
lfemur 22.2274 -2.52951 -22.8979
ltibia 12.4411
lfoot -15.918 -12.5123
ltoes -0.899188
2379
root 9.50749 19.8445 -13.7574 -184.555 -6.5943 -180.322
lowerback 4.8777 -0.484139 -3.22589
upperback 4.32039 -1.08616 2.69224
thorax 1.83093 -0.798513 4.62646
lowerneck -9.61955 1.8828 -10.4214
upperneck 41.8307 -3.44399 5.3585
head 17.0548 -4.45783 3.12685
rclavicle -9.44227e-015 7.15625e-015
rhumerus -37.8138 -18.722 -72.5217
rradius 21.3077
rwrist -3.83509
rhand -19.0235 14.3746
rfingers 7.12502
rthumb 7.28248 -15.4801
lclavicle -9.44227e-015 7.15625e-015
lhumerus -37.818 7.13895 82.1304
lradius 32.972
lwrist 4.84959
lhand -21.9689 22.2885
lfingers 7.12502
lthumb 4.43884 52.2219
rfemur -27.4444 -13.6394 19.6711
rtibia 39.0678
rfoot 13.4241 9.57582
rtoes -16.5865
lfemur 21.5314 -2.3847 -22.1985
ltibia 14.7626
lfoot -16.383 -13.2925
ltoes -0.212179
2380
root 9.5277 19.7977 -13.8834 -184.808 -6.56169 -179.805
lowerback 4.83647 -0.512629 -2.708
upperback 4.25405 -1.10748 2.77932
thorax 1.77752 -0.795327 4.42359
lowerneck -9.30169 1.94536 -10.3813
upperneck 41.7728 -3.44824 5.39738
head 16.9391 -4.46579 3.13349
rclavicle -9.54166e-015 2.06736e-014
rhumerus -38.0423 -18.8313 -72.4287
rradius 21.2273
rwrist -3.34871
rhand -19.0036 14.3559
rfingers 7.12502
rthumb 7.30166 -15.4981
lclavicle -9.54166e-015 2.06736e-014
lhumerus -38.1983 7.3143 81.8319
lradius 32.7759
lwrist 4.9907
lhand -22.5814 23.0673
lfingers 7.12502
lthumb 3.84738 53.0123
rfemur -26.7241 -13.9583 20.3313
rtibia 38.5244
rfoot 13.8654 9.08737
rtoes -15.1501
lfemur 20.9908 -2.02899 -21.249
ltibia 17.1115
lfoot -16.8564 -14.2233
ltoes 0.212572
2381
root 9.54955 19.7564 -14.0043 -184.951 -6.48383 -179.742
lowerback 4.8339 -0.513423 -2.67994
upperback 4.19498 -1.10368 2.81799
thorax 1.71771 -0.789569 4.44841
lowerneck -9.21492 1.94997 -10.7081
upperneck 41.8149 -3.4724 5.5354
head 16.9529 -4.5293 3.2493
rclavicle -7.10655e-015 9.54166e-015
rhumerus -38.0985 -18.7105 -72.3726
rradius 21.0988
rwrist -3.02947
rhand -19.1377 14.2391
rfingers 7.12502
rthumb 7.17222 -15.6194
lclavicle -7.10655e-015 9.54166e-015
lhumerus -38.3621 7.5218 81.7794
lradius 32.4831
lwrist 5.59681
lhand -23.6871 24.1139
lfingers 7.12502
lthumb 2.77951 54.0756
rfemur -26.1658 -14.2185 20.5203
rtibia 38.0714
rfoot 14.6741 8.73776
rtoes -13.8654
lfemur 20.4716 -1.75028 -20.8608
ltibia 19.2966
lfoot -17.051 -14.9935
ltoes 1.24768
2382
root 9.57254 19.7164 -14.1325 -185 -6.41484 -179.801
lowerback 4.63214 -0.442648 -2.7667
upperback 4.18393 -1.00118 2.80396
thorax 1.81035 -0.738637 4.47679
lowerneck -9.22942 1.92048 -10.9353
upperneck 41.8799 -3.58925 5.78007
head 17.0182 -4.59387 3.38373
rclavicle -2.37548e-014 -9.54166e-015
rhumerus -38.1249 -18.9242 -72.2483
rradius 21.0145
rwrist -2.68814
rhand -19.0885 14.2016
rfingers 7.12502
rthumb 7.21972 -15.6552
lclavicle -2.37548e-014 -9.54166e-015
lhumerus -38.4013 7.62449 81.6365
lradius 32.1216
lwrist 5.57082
lhand -23.2103 23.7984
lfingers 7.12502
lthumb 3.24006 53.7535
rfemur -25.6377 -14.1946 20.5307
rtibia 37.7332
rfoot 15.5103 8.33368
rtoes -12.8634
lfemur 20.0207 -1.49925 -20.6155
ltibia 21.1813
lfoot -17.2001 -15.5813
ltoes 0.412031
2383
root 9.59701 19.6684 -14.2654 -185.029 -6.3218 -179.69
lowerback 4.25722 -0.371077 -2.68176
upperback 4.24501 -0.896513 2.81006
thorax 2.07124 -0.689631 4.42615
lowerneck -9.33193 1.88265 -10.8441
upperneck 41.818 -3.58603 5.76914
head 17.0075 -4.55939 3.36531
rclavicle -6.75868e-015 -2.14687e-014
rhumerus -37.9587 -19.2432 -72.1815
rradius 20.8332
rwrist -2.31719
rhand -18.9164 14.2733
rfingers 7.12502
rthumb 7.38588 -15.5777
lclavicle -6.75868e-015 -2.14687e-014
lhumerus -38.4563 7.71467 81.4769
lradius 31.8699
lwrist 5.51956
lhand -22.6256 22.9261
lfingers 7.12502
lthumb 3.8047 52.8718
rfemur -25.102 -13.9837 20.6818
rtibia 37.4662
rfoot 16.2782 8.09413
rtoes -11.5896
lfemur 19.6236 -1.34919 -20.2239
ltibia 22.9163
lfoot -17.6292 -16.0693
ltoes -1.28317
2384
root 9.62295 19.6158 -14.397 -185.095 -6.17363 -179.67
lowerback 3.97128 -0.313907 -2.66773
upperback 4.28963 -0.811709 2.76757
thorax 2.26811 -0.649097 4.36813
lowerneck -9.62021 1.85041 -10.791
upperneck 41.9129 -3.5928 5.76694
head 17.1368 -4.54869 3.35523
rclavicle 6.75868e-015 -1.43125e-014
rhumerus -37.8084 -19.3605 -72.2414
rradius 20.6578
rwrist -2.16004
rhand -18.9513 14.1941
rfingers 7.12502
rthumb 7.35221 -15.6581
lclavicle 6.75868e-015 -1.43125e-014
lhumerus -38.7106 7.91385 81.2354
lradius 31.6542
lwrist 5.62291
lhand -22.9248 21.7034
lfingers 7.12502
lthumb 3.51576 51.6542
rfemur -24.5159 -13.826 20.7137
rtibia 37.2107
rfoot 16.8798 8.27206
rtoes -10.08
lfemur 19.2362 -1.33213 -20.0045
ltibia 24.7152
lfoot -17.5348 -16.8428
ltoes 1.20234
2385
root 9.65232 19.5604 -14.5343 -185.237 -6.00152 -179.526
lowerback 3.8252 -0.31752 -2.57785
upperback 4.24189 -0.805531 2.76475
thorax 2.29816 -0.64048 4.31254
lowerneck -9.67211 1.91779 -10.922
upperneck 42 -3.57851 5.9954
head 17.2038 -4.55284 3.48549
rclavicle 3.23025e-015 3.33958e-014
rhumerus -37.8817 -19.1183 -72.3946
rradius 20.6278
rwrist -2.2828
rhand -18.9763 14.0748
rfingers 7.12502
rthumb 7.32805 -15.7783
lclavicle 3.23025e-015 3.33958e-014
lhumerus -39.2661 8.8325 80.3244
lradius 31.2129
lwrist 3.89979
lhand -21.4004 19.0453
lfingers 7.12502
lthumb 4.9877 48.9666
rfemur -23.7729 -13.5933 20.8615
rtibia 36.9337
rfoot 17.2732 8.56641
rtoes -9.09218
lfemur 18.9487 -1.21047 -19.5606
ltibia 26.5561
lfoot -17.1381 -17.7318
ltoes 3.07115
2386
root 9.68041 19.5108 -14.6701 -185.234 -5.94128 -179.593
lowerback 3.65019 -0.336558 -2.68639
upperback 4.11168 -0.8108 2.72688
thorax 2.26299 -0.634895 4.33342
lowerneck -9.19043 2.0596 -11.0221
upperneck 41.8131 -3.41921 6.0791
head 16.9516 -4.50092 3.56394
rclavicle 5.66536e-015 1.11319e-014
rhumerus -37.9627 -18.8624 -72.4533
rradius 20.6217
rwrist -2.45414
rhand -18.8753 14.0937
rfingers 7.12502
rthumb 7.42552 -15.756
lclavicle 5.66536e-015 1.11319e-014
lhumerus -39.7727 8.24475 80.6718
lradius 31.6348
lwrist 5.88283
lhand -22.9758 21.5673
lfingers 7.12502
lthumb 3.46649 51.5189
rfemur -23.0936 -13.3112 20.7713
rtibia 36.6014
rfoot 17.7401 8.8535
rtoes -8.63561
lfemur 18.4877 -1.19639 -19.3414
ltibia 28.4183
lfoot -16.8143 -18.6201
ltoes 3.37196
